<svg width="1280" height="720" viewBox="0 0 1280 720" fill="none" xmlns="http://www.w3.org/2000/svg">
<path d="M-1.5625 -27.6892C17.8429 -20.2379 49.3481 18.8935 91.5833 8.07706C133.819 -2.73935 155.507 -77.685 201.167 -79.6079C246.826 -81.5309 265.09 -9.08497 310.75 -1.15294C356.41 6.77909 374.674 -40.092 420.333 -41.5342C465.993 -42.9764 484.257 -9.0369 529.917 -8.07544C575.576 -7.11398 593.84 -37.8806 639.5 -36.9192C685.16 -35.9577 703.424 1.34685 749.083 -3.46044C794.743 -8.26773 813.007 -63.84 858.667 -59.9942C904.326 -56.1484 922.59 12.8363 968.25 14.9996C1013.91 17.1628 1032.17 -51.293 1077.83 -49.6104C1123.49 -47.9279 1145.18 18.5089 1187.42 23.0758C1229.65 27.6427 1261.16 -17.1131 1280.56 -27.6892" stroke="#00B3AC" stroke-opacity="0.1" stroke-width="2" stroke-linecap="round"/>
<path d="M-1.5625 739.555C17.8429 747.006 49.3481 786.137 91.5833 775.321C133.819 764.504 155.507 689.559 201.167 687.636C246.826 685.713 265.09 758.159 310.75 766.091C356.41 774.023 374.674 727.152 420.333 725.71C465.993 724.267 484.257 758.207 529.917 759.168C575.576 760.13 593.84 729.363 639.5 730.325C685.16 731.286 703.424 768.591 749.083 763.783C794.743 758.976 813.007 703.404 858.667 707.25C904.326 711.095 922.59 780.08 968.25 782.243C1013.91 784.407 1032.17 715.951 1077.83 717.633C1123.49 719.316 1145.18 785.753 1187.42 790.32C1229.65 794.887 1261.16 750.131 1280.56 739.555" stroke="#00B3AC" stroke-opacity="0.1" stroke-width="2" stroke-linecap="round"/>
<path d="M-1.5625 699.173C17.8429 706.625 49.3481 745.756 91.5833 734.94C133.819 724.123 155.507 649.177 201.167 647.255C246.826 645.332 265.09 717.777 310.75 725.71C356.41 733.642 374.674 686.77 420.333 685.328C465.993 683.886 484.257 717.826 529.917 718.787C575.576 719.748 593.84 688.982 639.5 689.943C685.16 690.905 703.424 728.209 749.083 723.402C794.743 718.595 813.007 663.022 858.667 666.868C904.326 670.714 922.59 739.699 968.25 741.862C1013.91 744.025 1032.17 675.569 1077.83 677.252C1123.49 678.935 1145.18 745.371 1187.42 749.938C1229.65 754.505 1261.16 709.749 1280.56 699.173" stroke="#00B3AC" stroke-opacity="0.1" stroke-width="2" stroke-linecap="round"/>
<path d="M-1.5625 658.792C17.8429 666.243 49.3481 705.375 91.5833 694.558C133.819 683.742 155.507 608.796 201.167 606.873C246.826 604.95 265.09 677.396 310.75 685.328C356.41 693.26 374.674 646.389 420.333 644.947C465.993 643.505 484.257 677.444 529.917 678.406C575.576 679.367 593.84 648.601 639.5 649.562C685.16 650.523 703.424 687.828 749.083 683.021C794.743 678.214 813.007 622.641 858.667 626.487C904.326 630.333 922.59 699.318 968.25 701.481C1013.91 703.644 1032.17 635.188 1077.83 636.871C1123.49 638.553 1145.18 704.99 1187.42 709.557C1229.65 714.124 1261.16 669.368 1280.56 658.792" stroke="#00B3AC" stroke-opacity="0.1" stroke-width="2" stroke-linecap="round"/>
<path d="M-1.5625 618.411C17.8429 625.862 49.3481 664.993 91.5833 654.177C133.819 643.361 155.507 568.415 201.167 566.492C246.826 564.569 265.09 637.015 310.75 644.947C356.41 652.879 374.674 606.008 420.333 604.566C465.993 603.124 484.257 637.063 529.917 638.025C575.576 638.986 593.84 608.219 639.5 609.181C685.16 610.142 703.424 647.447 749.083 642.64C794.743 637.832 813.007 582.26 858.667 586.106C904.326 589.952 922.59 658.936 968.25 661.1C1013.91 663.263 1032.17 594.807 1077.83 596.49C1123.49 598.172 1145.18 664.609 1187.42 669.176C1229.65 673.743 1261.16 628.987 1280.56 618.411" stroke="#00B3AC" stroke-opacity="0.1" stroke-width="2" stroke-linecap="round"/>
<path d="M-1.5625 578.03C17.8429 585.481 49.3481 624.612 91.5833 613.796C133.819 602.979 155.507 528.034 201.167 526.111C246.826 524.188 265.09 596.634 310.75 604.566C356.41 612.498 374.674 565.627 420.333 564.185C465.993 562.742 484.257 596.682 529.917 597.643C575.576 598.605 593.84 567.838 639.5 568.8C685.16 569.761 703.424 607.066 749.083 602.258C794.743 597.451 813.007 541.879 858.667 545.725C904.326 549.57 922.59 618.555 968.25 620.718C1013.91 622.882 1032.17 554.426 1077.83 556.108C1123.49 557.791 1145.18 624.228 1187.42 628.795C1229.65 633.362 1261.16 588.606 1280.56 578.03" stroke="#00B3AC" stroke-opacity="0.1" stroke-width="2" stroke-linecap="round"/>
<path d="M-1.5625 537.648C17.8429 545.1 49.3481 584.231 91.5833 573.415C133.819 562.598 155.507 487.652 201.167 485.73C246.826 483.807 265.09 556.253 310.75 564.185C356.41 572.117 374.674 525.246 420.333 523.803C465.993 522.361 484.257 556.301 529.917 557.262C575.576 558.224 593.84 527.457 639.5 528.418C685.16 529.38 703.424 566.684 749.083 561.877C794.743 557.07 813.007 501.497 858.667 505.343C904.326 509.189 922.59 578.174 968.25 580.337C1013.91 582.5 1032.17 514.045 1077.83 515.727C1123.49 517.41 1145.18 583.846 1187.42 588.413C1229.65 592.98 1261.16 548.224 1280.56 537.648" stroke="#00B3AC" stroke-opacity="0.1" stroke-width="2" stroke-linecap="round"/>
<path d="M-1.5625 497.267C17.8429 504.718 49.3481 543.85 91.5833 533.033C133.819 522.217 155.507 447.271 201.167 445.348C246.826 443.425 265.09 515.871 310.75 523.803C356.41 531.735 374.674 484.864 420.333 483.422C465.993 481.98 484.257 515.919 529.917 516.881C575.576 517.842 593.84 487.076 639.5 488.037C685.16 488.999 703.424 526.303 749.083 521.496C794.743 516.689 813.007 461.116 858.667 464.962C904.326 468.808 922.59 537.793 968.25 539.956C1013.91 542.119 1032.17 473.663 1077.83 475.346C1123.49 477.028 1145.18 543.465 1187.42 548.032C1229.65 552.599 1261.16 507.843 1280.56 497.267" stroke="#00B3AC" stroke-opacity="0.1" stroke-width="2" stroke-linecap="round"/>
<path d="M-1.5625 456.886C17.8429 464.337 49.3481 503.468 91.5833 492.652C133.819 481.836 155.507 406.89 201.167 404.967C246.826 403.044 265.09 475.49 310.75 483.422C356.41 491.354 374.674 444.483 420.333 443.041C465.993 441.599 484.257 475.538 529.917 476.5C575.576 477.461 593.84 446.694 639.5 447.656C685.16 448.617 703.424 485.922 749.083 481.115C794.743 476.307 813.007 420.735 858.667 424.581C904.326 428.427 922.59 497.411 968.25 499.575C1013.91 501.738 1032.17 433.282 1077.83 434.965C1123.49 436.647 1145.18 503.084 1187.42 507.651C1229.65 512.218 1261.16 467.462 1280.56 456.886" stroke="#00B3AC" stroke-opacity="0.1" stroke-width="2" stroke-linecap="round"/>
<path d="M-1.5625 416.505C17.8429 423.956 49.3481 463.087 91.5833 452.271C133.819 441.454 155.507 366.509 201.167 364.586C246.826 362.663 265.09 435.109 310.75 443.041C356.41 450.973 374.674 404.102 420.333 402.66C465.993 401.217 484.257 435.157 529.917 436.118C575.576 437.08 593.84 406.313 639.5 407.275C685.16 408.236 703.424 445.541 749.083 440.733C794.743 435.926 813.007 380.354 858.667 384.2C904.326 388.045 922.59 457.03 968.25 459.193C1013.91 461.357 1032.17 392.901 1077.83 394.583C1123.49 396.266 1145.18 462.703 1187.42 467.27C1229.65 471.836 1261.16 427.081 1280.56 416.505" stroke="#00B3AC" stroke-opacity="0.1" stroke-width="2" stroke-linecap="round"/>
<path d="M-1.5625 376.123C17.8429 383.575 49.3481 422.706 91.5833 411.89C133.819 401.073 155.507 326.127 201.167 324.205C246.826 322.282 265.09 394.728 310.75 402.66C356.41 410.592 374.674 363.72 420.333 362.278C465.993 360.836 484.257 394.776 529.917 395.737C575.576 396.699 593.84 365.932 639.5 366.893C685.16 367.855 703.424 405.159 749.083 400.352C794.743 395.545 813.007 339.972 858.667 343.818C904.326 347.664 922.59 416.649 968.25 418.812C1013.91 420.975 1032.17 352.52 1077.83 354.202C1123.49 355.885 1145.18 422.321 1187.42 426.888C1229.65 431.455 1261.16 386.699 1280.56 376.123" stroke="#00B3AC" stroke-opacity="0.1" stroke-width="2" stroke-linecap="round"/>
<path d="M-1.5625 335.742C17.8429 343.193 49.3481 382.325 91.5833 371.508C133.819 360.692 155.507 285.746 201.167 283.823C246.826 281.9 265.09 354.346 310.75 362.278C356.41 370.21 374.674 323.339 420.333 321.897C465.993 320.455 484.257 354.394 529.917 355.356C575.576 356.317 593.84 325.551 639.5 326.512C685.16 327.474 703.424 364.778 749.083 359.971C794.743 355.164 813.007 299.591 858.667 303.437C904.326 307.283 922.59 376.268 968.25 378.431C1013.91 380.594 1032.17 312.138 1077.83 313.821C1123.49 315.503 1145.18 381.94 1187.42 386.507C1229.65 391.074 1261.16 346.318 1280.56 335.742" stroke="#00B3AC" stroke-opacity="0.1" stroke-width="2" stroke-linecap="round"/>
<path d="M-1.5625 295.361C17.8429 302.812 49.3481 341.943 91.5833 331.127C133.819 320.311 155.507 245.365 201.167 243.442C246.826 241.519 265.09 313.965 310.75 321.897C356.41 329.829 374.674 282.958 420.333 281.516C465.993 280.074 484.257 314.013 529.917 314.975C575.576 315.936 593.84 285.169 639.5 286.131C685.16 287.092 703.424 324.397 749.083 319.59C794.743 314.782 813.007 259.21 858.667 263.056C904.326 266.902 922.59 335.886 968.25 338.05C1013.91 340.213 1032.17 271.757 1077.83 273.44C1123.49 275.122 1145.18 341.559 1187.42 346.126C1229.65 350.693 1261.16 305.937 1280.56 295.361" stroke="#00B3AC" stroke-opacity="0.1" stroke-width="2" stroke-linecap="round"/>
<path d="M-1.5625 254.98C17.8429 262.431 49.3481 301.562 91.5833 290.746C133.819 279.929 155.507 204.984 201.167 203.061C246.826 201.138 265.09 273.584 310.75 281.516C356.41 289.448 374.674 242.577 420.333 241.135C465.993 239.692 484.257 273.632 529.917 274.593C575.576 275.555 593.84 244.788 639.5 245.75C685.16 246.711 703.424 284.016 749.083 279.208C794.743 274.401 813.007 218.829 858.667 222.675C904.326 226.52 922.59 295.505 968.25 297.668C1013.91 299.832 1032.17 231.376 1077.83 233.058C1123.49 234.741 1145.18 301.178 1187.42 305.745C1229.65 310.312 1261.16 265.556 1280.56 254.98" stroke="#00B3AC" stroke-opacity="0.1" stroke-width="2" stroke-linecap="round"/>
<path d="M-1.5625 214.598C17.8429 222.05 49.3481 261.181 91.5833 250.365C133.819 239.548 155.507 164.602 201.167 162.68C246.826 160.757 265.09 233.203 310.75 241.135C356.41 249.067 374.674 202.196 420.333 200.753C465.993 199.311 484.257 233.251 529.917 234.212C575.576 235.174 593.84 204.407 639.5 205.368C685.16 206.33 703.424 243.634 749.083 238.827C794.743 234.02 813.007 178.447 858.667 182.293C904.326 186.139 922.59 255.124 968.25 257.287C1013.91 259.45 1032.17 190.995 1077.83 192.677C1123.49 194.36 1145.18 260.796 1187.42 265.363C1229.65 269.93 1261.16 225.174 1280.56 214.598" stroke="#00B3AC" stroke-opacity="0.1" stroke-width="2" stroke-linecap="round"/>
<path d="M-1.5625 174.217C17.8429 181.668 49.3481 220.8 91.5833 209.983C133.819 199.167 155.507 124.221 201.167 122.298C246.826 120.375 265.09 192.821 310.75 200.753C356.41 208.685 374.674 161.814 420.333 160.372C465.993 158.93 484.257 192.869 529.917 193.831C575.576 194.792 593.84 164.026 639.5 164.987C685.16 165.949 703.424 203.253 749.083 198.446C794.743 193.639 813.007 138.066 858.667 141.912C904.326 145.758 922.59 214.743 968.25 216.906C1013.91 219.069 1032.17 150.613 1077.83 152.296C1123.49 153.978 1145.18 220.415 1187.42 224.982C1229.65 229.549 1261.16 184.793 1280.56 174.217" stroke="#00B3AC" stroke-opacity="0.1" stroke-width="2" stroke-linecap="round"/>
<path d="M-1.5625 133.836C17.8429 141.287 49.3481 180.418 91.5833 169.602C133.819 158.786 155.507 83.84 201.167 81.9171C246.826 79.9941 265.09 152.44 310.75 160.372C356.41 168.304 374.674 121.433 420.333 119.991C465.993 118.549 484.257 152.488 529.917 153.45C575.576 154.411 593.84 123.644 639.5 124.606C685.16 125.567 703.424 162.872 749.083 158.065C794.743 153.257 813.007 97.685 858.667 101.531C904.326 105.377 922.59 174.361 968.25 176.525C1013.91 178.688 1032.17 110.232 1077.83 111.915C1123.49 113.597 1145.18 180.034 1187.42 184.601C1229.65 189.168 1261.16 144.412 1280.56 133.836" stroke="#00B3AC" stroke-opacity="0.1" stroke-width="2" stroke-linecap="round"/>
<path d="M-1.5625 93.4546C17.8429 100.906 49.3481 140.037 91.5833 129.221C133.819 118.404 155.507 43.4587 201.167 41.5358C246.826 39.6129 265.09 112.059 310.75 119.991C356.41 127.923 374.674 81.0517 420.333 79.6096C465.993 78.1674 484.257 112.107 529.917 113.068C575.576 114.03 593.84 83.2631 639.5 84.2246C685.16 85.186 703.424 122.491 749.083 117.683C794.743 112.876 813.007 57.3037 858.667 61.1496C904.326 64.9954 922.59 133.98 968.25 136.143C1013.91 138.307 1032.17 69.8508 1077.83 71.5333C1123.49 73.2159 1145.18 139.653 1187.42 144.22C1229.65 148.786 1261.16 104.031 1280.56 93.4546" stroke="#00B3AC" stroke-opacity="0.1" stroke-width="2" stroke-linecap="round"/>
<path d="M-1.5625 53.0733C17.8429 60.5246 49.3481 99.656 91.5833 88.8396C133.819 78.0232 155.507 3.07748 201.167 1.15456C246.826 -0.768355 265.09 71.6775 310.75 79.6096C356.41 87.5416 374.674 40.6705 420.333 39.2283C465.993 37.7861 484.257 71.7256 529.917 72.6871C575.576 73.6485 593.84 42.8819 639.5 43.8433C685.16 44.8048 703.424 82.1094 749.083 77.3021C794.743 72.4948 813.007 16.9225 858.667 20.7683C904.326 24.6141 922.59 93.5988 968.25 95.7621C1013.91 97.9253 1032.17 29.4695 1077.83 31.1521C1123.49 32.8346 1145.18 99.2714 1187.42 103.838C1229.65 108.405 1261.16 63.6494 1280.56 53.0733" stroke="#00B3AC" stroke-opacity="0.1" stroke-width="2" stroke-linecap="round"/>
<path d="M-1.5625 12.6921C17.8429 20.1434 49.3481 59.2747 91.5833 48.4583C133.819 37.6419 155.507 -37.3038 201.167 -39.2267C246.826 -41.1496 265.09 31.2963 310.75 39.2283C356.41 47.1603 374.674 0.289249 420.333 -1.15294C465.993 -2.59513 484.257 31.3444 529.917 32.3058C575.576 33.2673 593.84 2.5006 639.5 3.46206C685.16 4.42352 703.424 41.7281 749.083 36.9208C794.743 32.1135 813.007 -23.4588 858.667 -19.6129C904.326 -15.7671 922.59 53.2175 968.25 55.3808C1013.91 57.5441 1032.17 -10.9117 1077.83 -9.22919C1123.49 -7.54664 1145.18 58.8901 1187.42 63.4571C1229.65 68.024 1261.16 23.2681 1280.56 12.6921" stroke="#00B3AC" stroke-opacity="0.1" stroke-width="2" stroke-linecap="round"/>
</svg>
